<svg width="64" height="32" viewBox="0 0 64 32" fill="none" xmlns="http://www.w3.org/2000/svg">
<path d="M7.12 31.48C6.45333 31.5867 5.77333 31.64 5.08 31.64C4.41333 31.64 3.77333 31.4933 3.16 31.2C2.62667 30.9867 2.14667 30.6667 1.72 30.24C1.29333 29.8133 0.946666 29.3467 0.68 28.84C0.466666 28.3867 0.306666 27.92 0.2 27.44C0.12 26.9333 0.0666662 26.4267 0.0399995 25.92C0.0133329 25.2267 0.0266662 24.52 0.0799996 23.8C0.16 23.08 0.226666 22.3733 0.28 21.68C0.333333 20.88 0.413333 20.08 0.52 19.28C0.626666 18.4533 0.746666 17.64 0.88 16.84C0.88 16.76 0.893333 16.6133 0.92 16.4C0.973333 16.1867 1.02667 15.96 1.08 15.72C1.13333 15.48 1.17333 15.2533 1.2 15.04C1.25333 14.8 1.28 14.64 1.28 14.56C1.28 14.4 1.30667 14.08 1.36 13.6C1.44 13.0933 1.50667 12.56 1.56 12C1.64 11.44 1.70667 10.9067 1.76 10.4C1.84 9.89333 1.89333 9.56 1.92 9.4C2.05333 8.62667 2.2 7.86667 2.36 7.12C2.54667 6.37333 2.78667 5.65333 3.08 4.96C3.29333 4.45333 3.56 3.96 3.88 3.48C4.2 3 4.58667 2.61333 5.04 2.32C5.54667 1.97333 6.12 1.76 6.76 1.68C7.42667 1.6 8.05333 1.62667 8.64 1.76C9.28 1.89333 9.89333 2.12 10.48 2.44C11.0667 2.76 11.56 3.17333 11.96 3.68C12.36 4.16 12.6267 4.77333 12.76 5.52C12.84 6 12.8533 6.49333 12.8 7C12.7467 7.48 12.6533 7.94667 12.52 8.4C12.3067 9.12 12.0667 9.84 11.8 10.56C11.5333 11.2533 11.2533 11.9467 10.96 12.64C10.5067 13.84 10.0667 15.0533 9.64 16.28C9.24 17.48 8.92 18.72 8.68 20C8.62667 20.2933 8.58667 20.5733 8.56 20.84C8.53333 21.1067 8.50667 21.3867 8.48 21.68C9.33333 21.3867 10.16 21.0533 10.96 20.68C11.7867 20.3067 12.6267 19.9733 13.48 19.68C13.8 19.5467 14.1333 19.4533 14.48 19.4C14.8267 19.3467 15.1733 19.3467 15.52 19.4C16.0267 19.4267 16.48 19.6267 16.88 20C17.28 20.2933 17.6 20.7067 17.84 21.24C18.08 21.7467 18.2533 22.3067 18.36 22.92C18.4667 23.5067 18.4933 24.1067 18.44 24.72C18.4133 25.3067 18.32 25.8267 18.16 26.28C17.9733 26.8133 17.68 27.32 17.28 27.8C16.9067 28.2533 16.4933 28.64 16.04 28.96C15.6933 29.2 15.1067 29.4533 14.28 29.72C13.48 29.9867 12.6133 30.24 11.68 30.48C10.7467 30.72 9.85333 30.9333 9 31.12C8.14667 31.3067 7.52 31.4267 7.12 31.48ZM29.4306 31.44C29.0573 31.5733 28.6573 31.64 28.2306 31.64C27.804 31.6667 27.3906 31.6267 26.9906 31.52C25.924 31.1733 25.044 30.6133 24.3506 29.84C23.4173 28.8267 22.644 27.68 22.0306 26.4C21.444 25.12 21.004 23.8 20.7106 22.44C20.3106 20.52 20.1506 18.5733 20.2306 16.6C20.3106 14.6267 20.5773 12.68 21.0306 10.76C21.2973 9.64 21.684 8.56 22.1906 7.52C22.6973 6.45333 23.3506 5.52 24.1506 4.72C24.4173 4.42667 24.7373 4.2 25.1106 4.04C25.484 3.88 25.8573 3.76 26.2306 3.68C27.2173 3.46667 28.1506 3.45333 29.0306 3.64C30.044 3.90667 30.8973 4.4 31.5906 5.12C31.8573 5.41333 32.084 5.73333 32.2706 6.08C32.4573 6.42667 32.5773 6.78667 32.6306 7.16C32.764 8.01333 32.724 8.88 32.5106 9.76C32.2973 10.6133 32.1106 11.4667 31.9506 12.32C31.684 13.76 31.4573 15.2133 31.2706 16.68C31.084 18.12 31.004 19.5733 31.0306 21.04C31.0573 22.0533 31.164 23.0533 31.3506 24.04C31.564 25 31.6973 25.9733 31.7506 26.96C31.7773 27.4933 31.7373 28.0133 31.6306 28.52C31.524 29.0267 31.3373 29.5067 31.0706 29.96C30.6706 30.6533 30.124 31.1467 29.4306 31.44ZM43.3897 31.2C42.7497 31.52 42.0964 31.6933 41.4297 31.72C40.763 31.7467 40.123 31.6533 39.5097 31.44C38.923 31.2 38.3764 30.8667 37.8697 30.44C37.3897 29.9867 37.003 29.44 36.7097 28.8C36.6564 28.6667 36.603 28.4533 36.5497 28.16C36.4964 27.84 36.4564 27.5067 36.4297 27.16C36.403 26.8133 36.3764 26.4933 36.3497 26.2C36.323 25.88 36.3097 25.64 36.3097 25.48C36.3097 24.3867 36.323 23.2933 36.3497 22.2C36.403 21.1067 36.4297 20.0133 36.4297 18.92C36.4297 17.8 36.3897 16.6933 36.3097 15.6C36.2564 14.5067 36.1097 13.4267 35.8697 12.36C35.7364 11.88 35.6297 11.4133 35.5497 10.96C35.4697 10.48 35.403 10 35.3497 9.52C35.2964 8.98667 35.3764 8.45333 35.5897 7.92C35.8297 7.33333 36.1897 6.84 36.6697 6.44C37.1764 6.04 37.7364 5.73333 38.3497 5.52C38.9897 5.28 39.6564 5.16 40.3497 5.16C41.043 5.13333 41.6964 5.2 42.3097 5.36C42.8164 5.49333 43.2964 5.69333 43.7497 5.96C44.203 6.22667 44.6297 6.52 45.0297 6.84C45.6697 7.32 46.2564 7.86667 46.7897 8.48C47.3497 9.06667 47.8697 9.66667 48.3497 10.28C49.3364 11.5067 50.2297 12.7867 51.0297 14.12C51.8564 15.4267 52.643 16.7733 53.3897 18.16C53.4164 17.6 53.3897 17.04 53.3097 16.48C53.2564 15.92 53.1897 15.36 53.1097 14.8C52.9497 13.5733 52.7497 12.36 52.5097 11.16C52.2964 9.96 52.1097 8.76 51.9497 7.56C51.8697 7.02667 51.803 6.49333 51.7497 5.96C51.6964 5.4 51.7364 4.85333 51.8697 4.32C52.0564 3.62667 52.3764 3 52.8297 2.44C53.283 1.85333 53.8164 1.37333 54.4297 1C55.0697 0.626667 55.7497 0.373333 56.4697 0.239998C57.1897 0.0799983 57.8964 0.0799983 58.5897 0.239998C59.5764 0.453332 60.3764 0.933332 60.9897 1.68C61.3097 2.05333 61.5764 2.48 61.7897 2.96C62.003 3.41333 62.1764 3.88 62.3097 4.36C62.683 5.56 62.923 6.8 63.0297 8.08C63.1364 9.33333 63.1897 10.5867 63.1897 11.84C63.2164 13.28 63.1497 14.7067 62.9897 16.12C62.8564 17.5333 62.6964 18.96 62.5097 20.4C62.3497 21.5467 62.1097 22.6933 61.7897 23.84C61.4964 24.96 61.0297 26 60.3897 26.96C59.9897 27.5733 59.483 28.1333 58.8697 28.64C58.283 29.12 57.643 29.4667 56.9497 29.68C56.0697 29.9467 55.123 29.9733 54.1097 29.76C53.123 29.52 52.2564 29.12 51.5097 28.56C51.2697 28.3733 50.9764 28.0667 50.6297 27.64C50.283 27.1867 49.9097 26.6667 49.5097 26.08C49.1364 25.4933 48.7364 24.88 48.3097 24.24C47.9097 23.5733 47.523 22.9333 47.1497 22.32C46.803 21.7067 46.483 21.16 46.1897 20.68C45.923 20.1733 45.7097 19.7867 45.5497 19.52C45.7097 20.3733 45.843 21.2133 45.9497 22.04C46.083 22.8667 46.1764 23.7067 46.2297 24.56C46.2564 25.2533 46.243 25.96 46.1897 26.68C46.163 27.4 46.003 28.08 45.7097 28.72C45.4964 29.2533 45.1764 29.7467 44.7497 30.2C44.3497 30.6267 43.8964 30.96 43.3897 31.2Z" fill="#F998D7"/>
</svg>
