<svg width="135" height="34" viewBox="0 0 135 34" fill="none" xmlns="http://www.w3.org/2000/svg">
<path d="M7.40001 32.68C6.76001 33.0533 6.08001 33.2667 5.36001 33.32C4.64001 33.3733 3.96001 33.2933 3.32001 33.08C2.68001 32.8933 2.09334 32.56 1.56001 32.08C1.05334 31.6267 0.666673 31.0533 0.400006 30.36C0.240006 29.9067 0.133339 29.4533 0.0800061 29C0.0266728 28.52 6.10948e-06 28.04 6.10948e-06 27.56C0.0533395 24.2 0.346673 20.8667 0.880006 17.56C1.44001 14.2533 2.13334 10.96 2.96001 7.68C3.20001 6.66667 3.48001 5.66667 3.80001 4.68C4.12001 3.66667 4.60001 2.77334 5.24001 2C5.40001 1.78667 5.58667 1.61334 5.80001 1.48C6.04001 1.32 6.26667 1.18667 6.48001 1.08C7.01334 0.866669 7.57334 0.746669 8.16001 0.720003C8.77334 0.693336 9.34667 0.773336 9.88001 0.960002C10.3333 1.12 10.7067 1.42667 11 1.88C11.32 2.30667 11.5867 2.74667 11.8 3.2C12.3333 4.48 12.6133 5.82667 12.64 7.24C12.6667 8.65334 12.6 10.04 12.44 11.4C13.0533 11 13.6267 10.5733 14.16 10.12C14.72 9.66667 15.3067 9.25334 15.92 8.88C16.6667 8.42667 17.4133 8 18.16 7.6C18.9067 7.2 19.6933 6.86667 20.52 6.6C21.1333 6.36 21.7867 6.34667 22.48 6.56C22.88 6.69334 23.2533 6.90667 23.6 7.2C23.9467 7.49334 24.2267 7.82667 24.44 8.2C24.84 8.89334 25.0133 9.65334 24.96 10.48C24.9067 11.28 24.64 11.9867 24.16 12.6C23.9467 12.8933 23.52 13.2667 22.88 13.72C22.24 14.1733 21.5467 14.64 20.8 15.12C20.08 15.5733 19.3733 16 18.68 16.4C18.0133 16.8 17.52 17.08 17.2 17.24C18.3733 18.1733 19.56 19.0933 20.76 20C21.96 20.88 23.0267 21.92 23.96 23.12C24.44 23.7333 24.76 24.48 24.92 25.36C25.08 26.24 25.0133 27.0533 24.72 27.8C24.4 28.6533 23.8933 29.2133 23.2 29.48C22.5333 29.7467 21.7867 29.8267 20.96 29.72C20.1333 29.5867 19.28 29.32 18.4 28.92C17.52 28.4933 16.7067 28.0133 15.96 27.48C15 26.8133 14.0933 26.08 13.24 25.28C12.3867 24.48 11.5467 23.6667 10.72 22.84C10.6667 23.6933 10.6267 24.5467 10.6 25.4C10.5733 26.2533 10.4933 27.1067 10.36 27.96C10.2533 28.52 10.0933 29.0933 9.88001 29.68C9.69334 30.24 9.42667 30.7467 9.08001 31.2C8.86667 31.4933 8.61334 31.7733 8.32001 32.04C8.05334 32.3067 7.74667 32.52 7.40001 32.68ZM49.6163 31.2C48.4963 31.9733 47.2429 32.28 45.8563 32.12C45.4563 32.0667 45.0563 31.9467 44.6563 31.76C44.2829 31.6 43.9496 31.3867 43.6563 31.12C43.1496 30.6133 42.8163 30.04 42.6563 29.4C42.4963 28.8933 42.3763 28.3867 42.2963 27.88C42.2429 27.3733 42.1896 26.8533 42.1363 26.32C41.2563 26.24 40.3763 26.1733 39.4963 26.12C38.6429 26.0667 37.7763 26.0267 36.8963 26C36.7096 26.6933 36.5096 27.4 36.2963 28.12C36.1096 28.8133 35.7896 29.4533 35.3363 30.04C34.7496 30.84 33.9763 31.3867 33.0163 31.68C32.4829 31.84 31.9363 31.9067 31.3763 31.88C30.8163 31.8533 30.2696 31.7333 29.7363 31.52C29.2829 31.3333 28.8563 31.08 28.4563 30.76C28.0829 30.44 27.7896 30.0667 27.5763 29.64C27.2829 28.9733 27.1496 28.3333 27.1763 27.72C27.2296 26.12 27.3896 24.5467 27.6563 23C27.9496 21.4533 28.3096 19.92 28.7363 18.4C29.2163 16.7733 29.7629 15.1733 30.3763 13.6C31.0163 12 31.7629 10.4533 32.6163 8.96C33.1496 8.02667 33.7229 7.12 34.3363 6.24C34.9763 5.33334 35.6829 4.52 36.4563 3.8C36.8563 3.42667 37.2829 3.09334 37.7363 2.8C38.2163 2.50667 38.7229 2.30667 39.2563 2.2C39.7629 2.06667 40.2696 1.96 40.7763 1.88C41.2829 1.8 41.7896 1.81334 42.2963 1.92C42.9629 2.02667 43.5896 2.25334 44.1763 2.6C44.7629 2.94667 45.2829 3.34667 45.7363 3.8C46.7496 4.84 47.5763 6.04 48.2163 7.4C48.8829 8.76 49.4429 10.1333 49.8963 11.52C50.5363 13.52 51.0029 15.56 51.2963 17.64C51.6163 19.6933 51.8029 21.76 51.8563 23.84C51.8829 24.6133 51.9096 25.3867 51.9363 26.16C51.9629 26.9067 51.8696 27.6533 51.6563 28.4C51.3363 29.5467 50.6563 30.48 49.6163 31.2ZM38.2963 20.48C38.9096 20.4 39.5096 20.3733 40.0963 20.4C40.7096 20.4 41.3229 20.44 41.9363 20.52C41.9096 19.88 41.8696 19.2533 41.8163 18.64C41.7896 18 41.7096 17.3733 41.5763 16.76C41.5229 16.5467 41.4429 16.2533 41.3363 15.88C41.2296 15.5067 41.0829 15.2667 40.8963 15.16C40.7629 15.1067 40.6296 15.1333 40.4963 15.24C40.3629 15.32 40.2563 15.4267 40.1763 15.56C39.9629 15.8533 39.7896 16.16 39.6563 16.48C39.5229 16.7733 39.3896 17.08 39.2563 17.4C39.0696 17.9333 38.8963 18.4533 38.7363 18.96C38.5763 19.44 38.4296 19.9467 38.2963 20.48ZM60.1303 31.12C59.7837 31.3067 59.4237 31.44 59.0503 31.52C58.677 31.6267 58.3037 31.6533 57.9303 31.6C57.237 31.5467 56.597 31.32 56.0103 30.92C55.397 30.4667 54.9437 29.88 54.6503 29.16C54.437 28.6533 54.3037 28.1333 54.2503 27.6C54.2237 27.04 54.2637 26.4933 54.3703 25.96C54.8503 23.0533 55.3437 20.16 55.8503 17.28C56.3837 14.4 56.797 11.4933 57.0903 8.56C57.1437 7.97334 57.237 7.38667 57.3703 6.8C57.5037 6.21334 57.7037 5.65334 57.9703 5.12C58.3437 4.32 58.8503 3.68 59.4903 3.2C60.077 2.77334 60.717 2.46667 61.4103 2.28C62.1037 2.06667 62.797 1.90667 63.4903 1.8C64.7703 1.61334 66.0503 1.61334 67.3303 1.8C68.637 1.96 69.877 2.30667 71.0503 2.84C71.8503 3.18667 72.6103 3.61334 73.3303 4.12C74.0503 4.62667 74.7037 5.22667 75.2903 5.92C75.7437 6.45334 76.1303 7.02667 76.4503 7.64C76.797 8.25334 77.037 8.90667 77.1703 9.6C77.3837 10.6133 77.3837 11.6533 77.1703 12.72C76.9837 13.7867 76.6103 14.7467 76.0503 15.6C75.4637 16.48 74.7303 17.2533 73.8503 17.92C72.997 18.5867 72.0903 19.1467 71.1303 19.6C71.8503 19.9733 72.557 20.3733 73.2503 20.8C73.9703 21.2 74.637 21.6667 75.2503 22.2C75.6237 22.5467 75.9703 22.92 76.2903 23.32C76.637 23.72 76.8903 24.16 77.0503 24.64C77.2637 25.3067 77.2637 25.96 77.0503 26.6C76.8903 27.1067 76.637 27.5733 76.2903 28C75.9437 28.4 75.5437 28.7467 75.0903 29.04C74.637 29.3067 74.1437 29.4933 73.6103 29.6C73.077 29.7067 72.557 29.6933 72.0503 29.56C71.677 29.4533 71.3037 29.3333 70.9303 29.2C70.5837 29.04 70.237 28.8667 69.8903 28.68C68.877 28.12 67.917 27.48 67.0103 26.76C66.1037 26.0133 65.157 25.3333 64.1703 24.72C63.957 25.3867 63.7037 26.04 63.4103 26.68C63.1437 27.2933 62.8503 27.9067 62.5303 28.52C62.237 29.0533 61.8903 29.5467 61.4903 30C61.117 30.4533 60.6637 30.8267 60.1303 31.12ZM65.7303 9.4C65.6503 9.58667 65.5703 9.93334 65.4903 10.44C65.437 10.92 65.3837 11.44 65.3303 12C65.277 12.56 65.2103 13.0933 65.1303 13.6C65.077 14.08 65.037 14.4133 65.0103 14.6C65.5703 14.6 66.1037 14.48 66.6103 14.24C67.117 14 67.5303 13.6933 67.8503 13.32C68.1703 12.92 68.357 12.4933 68.4103 12.04C68.4637 11.5867 68.317 11.1333 67.9703 10.68C67.7037 10.3333 67.3703 10.0667 66.9703 9.88C66.5703 9.69334 66.157 9.53334 65.7303 9.4ZM96.12 29.76C94.92 29.8133 93.72 29.84 92.52 29.84C91.32 29.8133 90.12 29.7733 88.92 29.72C88.0133 29.6667 87.1067 29.5867 86.2 29.48C85.2933 29.3467 84.4267 29.12 83.6 28.8C83.0667 28.5867 82.56 28.3333 82.08 28.04C81.6 27.72 81.1733 27.3467 80.8 26.92C80.5867 26.68 80.4267 26.4133 80.32 26.12C80.24 25.8 80.1733 25.48 80.12 25.16C80.0133 24.6267 79.9467 24.1067 79.92 23.6C79.8933 23.0667 79.88 22.5333 79.88 22C79.88 20.4 79.96 18.8133 80.12 17.24C80.3067 15.6667 80.56 14.0933 80.88 12.52C81.0933 11.4267 81.3467 10.36 81.64 9.32C81.9333 8.25334 82.3067 7.21334 82.76 6.2C82.9733 5.66667 83.2267 5.16 83.52 4.68C83.8133 4.2 84.1867 3.8 84.64 3.48C85.04 3.18667 85.48 3 85.96 2.92C86.44 2.81334 86.92 2.73334 87.4 2.68C88.6 2.6 89.7867 2.62667 90.96 2.76C92.16 2.86667 93.36 2.89334 94.56 2.84C95.6 2.81334 96.64 2.81334 97.68 2.84C98.72 2.86667 99.76 2.94667 100.8 3.08C100.907 3.10667 101.16 3.14667 101.56 3.2C101.96 3.25334 102.213 3.30667 102.32 3.36C102.72 3.46667 103.067 3.69334 103.36 4.04C103.6 4.38667 103.747 4.8 103.8 5.28C103.88 5.73334 103.88 6.21334 103.8 6.72C103.72 7.2 103.587 7.68 103.4 8.16C103.213 8.61334 103 9.01334 102.76 9.36C102.52 9.73334 102.227 10.0667 101.88 10.36C101.533 10.6267 101.147 10.8267 100.72 10.96C100.32 11.0933 99.8933 11.16 99.44 11.16C99.0133 11.1333 98.5733 11.0933 98.12 11.04C97.1867 10.9067 96.24 10.76 95.28 10.6C94.32 10.4133 93.3733 10.3333 92.44 10.36C92.3333 10.3867 92.1333 10.4133 91.84 10.44C91.5733 10.44 91.4 10.4667 91.32 10.52C91.1067 10.6267 90.9733 10.8267 90.92 11.12C90.8933 11.3867 90.92 11.64 91 11.88C91.1067 12.12 91.3467 12.2667 91.72 12.32C92.12 12.3467 92.44 12.3733 92.68 12.4C93.4533 12.4533 94.2133 12.4533 94.96 12.4C95.7333 12.3467 96.5067 12.3867 97.28 12.52C97.7333 12.6 98.2 12.76 98.68 13C99.16 13.2133 99.52 13.52 99.76 13.92C100 14.3467 100.093 14.8267 100.04 15.36C99.96 15.9733 99.72 16.5733 99.32 17.16C98.9467 17.72 98.48 18.1067 97.92 18.32C97.7333 18.4 97.4267 18.4533 97 18.48C96.5733 18.5067 96.12 18.52 95.64 18.52C95.1867 18.4933 94.7467 18.4667 94.32 18.44C93.8933 18.4133 93.5733 18.3867 93.36 18.36C93.2267 18.3333 93.0133 18.2933 92.72 18.24C92.4533 18.1867 92.16 18.1333 91.84 18.08C91.52 18 91.2133 17.9467 90.92 17.92C90.6533 17.8933 90.4667 17.8933 90.36 17.92C90.04 17.9733 89.7733 18.2 89.56 18.6C89.3733 19 89.2667 19.36 89.24 19.68C89.24 19.7867 89.24 19.9333 89.24 20.12C89.2667 20.3067 89.32 20.4267 89.4 20.48C89.5067 20.56 89.68 20.6267 89.92 20.68C90.16 20.7067 90.4133 20.7333 90.68 20.76C90.9467 20.7867 91.2 20.8 91.44 20.8C91.7067 20.8 91.9067 20.8 92.04 20.8C92.2533 20.8 92.5867 20.7867 93.04 20.76C93.52 20.7333 94.0533 20.7067 94.64 20.68C95.2533 20.6533 95.88 20.6267 96.52 20.6C97.1867 20.5733 97.8133 20.56 98.4 20.56C98.9867 20.5333 99.5067 20.5333 99.96 20.56C100.44 20.56 100.787 20.5733 101 20.6C102.013 20.8133 102.747 21.36 103.2 22.24C103.467 22.7733 103.6 23.3467 103.6 23.96C103.627 24.5467 103.533 25.1333 103.32 25.72C103.107 26.28 102.8 26.8133 102.4 27.32C102 27.8 101.547 28.2 101.04 28.52C100.32 28.9733 99.5333 29.28 98.68 29.44C97.8267 29.6 96.9733 29.7067 96.12 29.76ZM114.328 31.2C113.688 31.52 113.035 31.6933 112.368 31.72C111.701 31.7467 111.061 31.6533 110.448 31.44C109.861 31.2 109.315 30.8667 108.808 30.44C108.328 29.9867 107.941 29.44 107.648 28.8C107.595 28.6667 107.541 28.4533 107.488 28.16C107.435 27.84 107.395 27.5067 107.368 27.16C107.341 26.8133 107.315 26.4933 107.288 26.2C107.261 25.88 107.248 25.64 107.248 25.48C107.248 24.3867 107.261 23.2933 107.288 22.2C107.341 21.1067 107.368 20.0133 107.368 18.92C107.368 17.8 107.328 16.6933 107.248 15.6C107.195 14.5067 107.048 13.4267 106.808 12.36C106.675 11.88 106.568 11.4133 106.488 10.96C106.408 10.48 106.341 10 106.288 9.52C106.235 8.98667 106.315 8.45334 106.528 7.92C106.768 7.33334 107.128 6.84 107.608 6.44C108.115 6.04 108.675 5.73334 109.288 5.52C109.928 5.28 110.595 5.16 111.288 5.16C111.981 5.13334 112.635 5.2 113.248 5.36C113.755 5.49334 114.235 5.69334 114.688 5.96C115.141 6.22667 115.568 6.52 115.968 6.84C116.608 7.32 117.195 7.86667 117.728 8.48C118.288 9.06667 118.808 9.66667 119.288 10.28C120.275 11.5067 121.168 12.7867 121.968 14.12C122.795 15.4267 123.581 16.7733 124.328 18.16C124.355 17.6 124.328 17.04 124.248 16.48C124.195 15.92 124.128 15.36 124.048 14.8C123.888 13.5733 123.688 12.36 123.448 11.16C123.235 9.96 123.048 8.76 122.888 7.56C122.808 7.02667 122.741 6.49334 122.688 5.96C122.635 5.4 122.675 4.85334 122.808 4.32C122.995 3.62667 123.315 3 123.768 2.44C124.221 1.85334 124.755 1.37334 125.368 1C126.008 0.626671 126.688 0.373336 127.408 0.240002C128.128 0.0800021 128.835 0.0800021 129.528 0.240002C130.515 0.453335 131.315 0.933336 131.928 1.68C132.248 2.05334 132.515 2.48 132.728 2.96C132.941 3.41334 133.115 3.88 133.248 4.36C133.621 5.56 133.861 6.8 133.968 8.08C134.075 9.33334 134.128 10.5867 134.128 11.84C134.155 13.28 134.088 14.7067 133.928 16.12C133.795 17.5333 133.635 18.96 133.448 20.4C133.288 21.5467 133.048 22.6933 132.728 23.84C132.435 24.96 131.968 26 131.328 26.96C130.928 27.5733 130.421 28.1333 129.808 28.64C129.221 29.12 128.581 29.4667 127.888 29.68C127.008 29.9467 126.061 29.9733 125.048 29.76C124.061 29.52 123.195 29.12 122.448 28.56C122.208 28.3733 121.915 28.0667 121.568 27.64C121.221 27.1867 120.848 26.6667 120.448 26.08C120.075 25.4933 119.675 24.88 119.248 24.24C118.848 23.5733 118.461 22.9333 118.088 22.32C117.741 21.7067 117.421 21.16 117.128 20.68C116.861 20.1733 116.648 19.7867 116.488 19.52C116.648 20.3733 116.781 21.2133 116.888 22.04C117.021 22.8667 117.115 23.7067 117.168 24.56C117.195 25.2533 117.181 25.96 117.128 26.68C117.101 27.4 116.941 28.08 116.648 28.72C116.435 29.2533 116.115 29.7467 115.688 30.2C115.288 30.6267 114.835 30.96 114.328 31.2Z" fill="#F998D7"/>
</svg>
